<svg xmlns="http://www.w3.org/2000/svg" viewBox="0 0 512 512"><defs><style>.cls-1{fill:#f7bb38;}.cls-2{fill:#27273d;}.cls-3{fill:#4f4f74;}.cls-4{fill:#3e436d;}.cls-5{fill:#32314b;}.cls-6{fill:#5f5f84;}.cls-7{fill:#4c4c75;}.cls-8{fill:#fff;}.cls-9{fill:#f6c752;}</style></defs><title>Cinema</title><g id="BULINE"><circle class="cls-1" cx="256" cy="256" r="256"/></g><g id="Icons"><path class="cls-2" d="M151.41,468.92A10,10,0,0,1,145.27,451l209.2-162.16a10,10,0,1,1,12.26,15.8L157.53,466.82A10,10,0,0,1,151.41,468.92Z"/><polygon class="cls-3" points="356.25 124.95 157.16 124.95 152.81 48.58 360.6 48.58 356.25 124.95"/><path class="cls-4" d="M358.8,111.94l-.74,13H159l-4.34-76.36h15.74l1.21,21.31a44.58,44.58,0,0,0,44.5,42.05Z"/><path class="cls-2" d="M349.3,247.93h-.44a7.51,7.51,0,0,1-7.05-7.93l11.3-191.85a7.5,7.5,0,0,1,15,.89L356.78,240.87A7.49,7.49,0,0,1,349.3,247.93Z"/><path class="cls-5" d="M133.9,311.25a7.51,7.51,0,0,1-7.25-5.59L103.29,217a7.5,7.5,0,1,1,14.5-3.82l23.37,88.68a7.51,7.51,0,0,1-7.26,9.41Z"/><path class="cls-5" d="M378.1,311.25a7.51,7.51,0,0,1-7.26-9.41l23.37-88.68a7.5,7.5,0,1,1,14.5,3.82l-23.36,88.68A7.51,7.51,0,0,1,378.1,311.25Z"/><path class="cls-5" d="M360.59,468.92a10,10,0,0,1-6.12-2.1L145.27,304.65a10,10,0,0,1,12.26-15.8L366.73,451a10,10,0,0,1-6.14,17.91Z"/><circle class="cls-6" cx="333.08" cy="64.58" r="8.72"/><circle class="cls-6" cx="314.91" cy="64.58" r="6.18"/><path class="cls-2" d="M162.7,247.93a7.49,7.49,0,0,1-7.48-7.06L143.91,49a7.5,7.5,0,0,1,15-.89L170.19,240a7.51,7.51,0,0,1-7.05,7.93Z"/><path class="cls-7" d="M110.54,243.59A17.51,17.51,0,0,1,98,213.88l46.94-48.25A17.5,17.5,0,1,1,170,190l-46.95,48.25A17.46,17.46,0,0,1,110.54,243.59Z"/><path class="cls-4" d="M170,190l-46.94,48.25a17.5,17.5,0,0,1-29.48-16.63,17.5,17.5,0,0,0,29.48,7.79L170,181.2a17.32,17.32,0,0,0,4.39-7.78A17.48,17.48,0,0,1,170,190Z"/><polygon class="cls-3" points="389.51 316.58 123.91 316.58 155.64 240.43 357.77 240.43 389.51 316.58"/><path class="cls-4" d="M363.81,254.93H220.92a73.94,73.94,0,0,0-68.24,45.49l-6.74,16.16h-22l31.73-76.15H357.77Z"/><path class="cls-7" d="M401.46,243.59a17.42,17.42,0,0,1-12.54-5.3L342,190a17.5,17.5,0,1,1,25.09-24.41L414,213.88a17.51,17.51,0,0,1-12.54,29.71Z"/><path class="cls-4" d="M123.9,316.58h265.6a0,0,0,0,1,0,0v12.7a6,6,0,0,1-6,6H129.87a6,6,0,0,1-6-6v-12.7A0,0,0,0,1,123.9,316.58Z"/><path class="cls-4" d="M342,190l46.94,48.25a17.5,17.5,0,0,0,29.48-16.63,17.5,17.5,0,0,1-29.48,7.79L342,181.2a17.32,17.32,0,0,1-4.39-7.78A17.48,17.48,0,0,0,342,190Z"/><path class="cls-8" d="M257.11,54.54l7.21,22.18A1.87,1.87,0,0,0,266.1,78h23.32a1.87,1.87,0,0,1,1.1,3.38L271.65,95.1a1.88,1.88,0,0,0-.68,2.09l7.21,22.18a1.86,1.86,0,0,1-2.87,2.09l-18.88-13.71a1.88,1.88,0,0,0-2.19,0l-18.87,13.71a1.87,1.87,0,0,1-2.88-2.09l7.21-22.18A1.86,1.86,0,0,0,239,95.1L220.15,81.39a1.87,1.87,0,0,1,1.1-3.38h23.32a1.87,1.87,0,0,0,1.78-1.29l7.21-22.18A1.86,1.86,0,0,1,257.11,54.54Z"/><path class="cls-9" d="M256.65,63.18,262,79.55a1.37,1.37,0,0,0,1.31,1H280.5a1.38,1.38,0,0,1,.81,2.5L267.38,93.12a1.37,1.37,0,0,0-.5,1.54L272.2,111a1.38,1.38,0,0,1-2.12,1.54l-13.93-10.12a1.38,1.38,0,0,0-1.62,0L240.6,112.58a1.38,1.38,0,0,1-2.13-1.54l5.32-16.38a1.36,1.36,0,0,0-.5-1.54L229.36,83a1.38,1.38,0,0,1,.81-2.5h17.22a1.37,1.37,0,0,0,1.31-1L254,63.18A1.38,1.38,0,0,1,256.65,63.18Z"/><path class="cls-8" d="M192.23,68.27l4.21,13a1.08,1.08,0,0,0,1,.76h13.62a1.09,1.09,0,0,1,.64,2l-11,8a1.09,1.09,0,0,0-.39,1.22l4.21,13a1.09,1.09,0,0,1-1.68,1.22l-11-8a1.08,1.08,0,0,0-1.28,0l-11,8a1.09,1.09,0,0,1-1.68-1.22l4.21-13a1.11,1.11,0,0,0-.4-1.22l-11-8a1.09,1.09,0,0,1,.65-2h13.61a1.11,1.11,0,0,0,1-.76l4.2-13A1.1,1.1,0,0,1,192.23,68.27Z"/><path class="cls-9" d="M192,73.32l3.1,9.56a.81.81,0,0,0,.77.55h10a.81.81,0,0,1,.47,1.46l-8.13,5.91a.8.8,0,0,0-.29.9l3.1,9.55a.8.8,0,0,1-1.23.9l-8.14-5.9a.78.78,0,0,0-.94,0l-8.13,5.9a.8.8,0,0,1-1.24-.9l3.1-9.55a.8.8,0,0,0-.29-.9L176,84.89a.81.81,0,0,1,.47-1.46h10.05a.81.81,0,0,0,.77-.55l3.11-9.56A.8.8,0,0,1,192,73.32Z"/><path class="cls-8" d="M321.84,68.27l4.21,13a1.11,1.11,0,0,0,1,.76H340.7a1.09,1.09,0,0,1,.64,2l-11,8a1.11,1.11,0,0,0-.4,1.22l4.21,13a1.09,1.09,0,0,1-1.68,1.22l-11-8a1.08,1.08,0,0,0-1.28,0l-11,8a1.09,1.09,0,0,1-1.68-1.22l4.21-13a1.08,1.08,0,0,0-.4-1.22l-11-8a1.09,1.09,0,0,1,.64-2h13.62a1.08,1.08,0,0,0,1-.76l4.21-13A1.09,1.09,0,0,1,321.84,68.27Z"/><path class="cls-9" d="M321.57,73.32l3.11,9.56a.8.8,0,0,0,.76.55h10.05a.81.81,0,0,1,.48,1.46l-8.13,5.91a.8.8,0,0,0-.3.9l3.11,9.55a.8.8,0,0,1-1.24.9l-8.13-5.9a.79.79,0,0,0-.95,0l-8.13,5.9a.8.8,0,0,1-1.24-.9l3.11-9.55a.8.8,0,0,0-.29-.9l-8.13-5.91a.81.81,0,0,1,.47-1.46h10.05a.81.81,0,0,0,.77-.55l3.1-9.56A.8.8,0,0,1,321.57,73.32Z"/></g></svg>