<svg xmlns="http://www.w3.org/2000/svg" viewBox="0 0 512 512"><defs><style>.cls-1{fill:#fcc8bc;}.cls-2{fill:#32314b;}.cls-3{fill:#3e436d;}.cls-4{fill:#ffebb8;}.cls-5{fill:#edd9ab;}.cls-6{fill:#fcefd9;}</style></defs><title>Cinema</title><g id="BULINE"><circle class="cls-1" cx="256" cy="256" r="256"/></g><g id="Icons"><path class="cls-2" d="M354.15,457.25,262.78,396.5V95.86a7.5,7.5,0,1,0-15,0V396.79l-90.93,60.46a7.5,7.5,0,0,0,8.3,12.5l82.67-55a7.5,7.5,0,0,0,14.94-.28l83.09,55.25a7.5,7.5,0,0,0,8.3-12.5Z"/><path class="cls-3" d="M182.74,106.9H329.26a0,0,0,0,1,0,0v3.71A11.36,11.36,0,0,1,317.9,122H194.1a11.36,11.36,0,0,1-11.36-11.36V106.9A0,0,0,0,1,182.74,106.9Z"/><rect class="cls-3" x="136.58" y="55.19" width="92.32" height="59.25" rx="6.2"/><rect class="cls-4" x="143.31" y="61.16" width="78.86" height="47.31" rx="5.12"/><path class="cls-5" d="M222.17,99.57v3.78a5.12,5.12,0,0,1-5.12,5.12H148.43a5.12,5.12,0,0,1-5.12-5.12V66.28a5.12,5.12,0,0,1,5.12-5.12H152V94.45a5.12,5.12,0,0,0,5.12,5.12Z"/><circle class="cls-6" cx="210.84" cy="71.14" r="5.97"/><circle class="cls-6" cx="198.42" cy="71.14" r="4.23"/><rect class="cls-3" x="283.1" y="55.19" width="92.32" height="59.25" rx="6.2"/><rect class="cls-4" x="289.83" y="61.16" width="78.86" height="47.31" rx="5.12"/><path class="cls-5" d="M368.69,99.57v3.78a5.12,5.12,0,0,1-5.12,5.12H295a5.12,5.12,0,0,1-5.12-5.12V66.28A5.12,5.12,0,0,1,295,61.16h3.61V94.45a5.11,5.11,0,0,0,5.11,5.12Z"/><circle class="cls-6" cx="357.36" cy="71.14" r="5.97"/><circle class="cls-6" cx="344.93" cy="71.14" r="4.23"/><path class="cls-2" d="M241.26,84.82h28a4.48,4.48,0,0,1,4.48,4.48V106.9a0,0,0,0,1,0,0h-37a0,0,0,0,1,0,0V89.29a4.48,4.48,0,0,1,4.48-4.48Z"/></g></svg>